<mxfile host="Electron" modified="2024-12-30T20:00:25.502Z" agent="Mozilla/5.0 (Windows NT 10.0; Win64; x64) AppleWebKit/537.36 (KHTML, like Gecko) draw.io/22.1.2 Chrome/114.0.5735.289 Electron/25.9.4 Safari/537.36" etag="mrKnxFDXQih4MIOY3Sp6" version="22.1.2" type="device">
  <diagram name="Page-1" id="JsFSYu5uB-rTkBo9iaa0">
    <mxGraphModel dx="1411" dy="806" grid="1" gridSize="10" guides="1" tooltips="1" connect="1" arrows="1" fold="1" page="1" pageScale="1" pageWidth="850" pageHeight="1100" math="0" shadow="0">
      <root>
        <mxCell id="0" />
        <mxCell id="1" parent="0" />
        <mxCell id="kIBp5ZHx_5jsnp3P2-BE-1" value="浏览器" style="rounded=0;whiteSpace=wrap;html=1;" vertex="1" parent="1">
          <mxGeometry x="50" y="210" width="240" height="60" as="geometry" />
        </mxCell>
        <mxCell id="kIBp5ZHx_5jsnp3P2-BE-9" style="edgeStyle=orthogonalEdgeStyle;rounded=0;orthogonalLoop=1;jettySize=auto;html=1;exitX=1;exitY=0.5;exitDx=0;exitDy=0;entryX=0;entryY=0.5;entryDx=0;entryDy=0;" edge="1" parent="1" source="kIBp5ZHx_5jsnp3P2-BE-2" target="kIBp5ZHx_5jsnp3P2-BE-3">
          <mxGeometry relative="1" as="geometry" />
        </mxCell>
        <mxCell id="kIBp5ZHx_5jsnp3P2-BE-2" value="URL&lt;br&gt;PAC" style="ellipse;whiteSpace=wrap;html=1;" vertex="1" parent="1">
          <mxGeometry x="220" y="225" width="60" height="30" as="geometry" />
        </mxCell>
        <mxCell id="kIBp5ZHx_5jsnp3P2-BE-29" style="edgeStyle=orthogonalEdgeStyle;rounded=0;orthogonalLoop=1;jettySize=auto;html=1;exitX=1;exitY=0.5;exitDx=0;exitDy=0;entryX=0;entryY=0.5;entryDx=0;entryDy=0;" edge="1" parent="1" source="kIBp5ZHx_5jsnp3P2-BE-3" target="kIBp5ZHx_5jsnp3P2-BE-12">
          <mxGeometry relative="1" as="geometry" />
        </mxCell>
        <mxCell id="kIBp5ZHx_5jsnp3P2-BE-3" value="socks,请求有目标域名" style="shape=parallelogram;perimeter=parallelogramPerimeter;whiteSpace=wrap;html=1;fixedSize=1;" vertex="1" parent="1">
          <mxGeometry x="710" y="210" width="220" height="60" as="geometry" />
        </mxCell>
        <mxCell id="kIBp5ZHx_5jsnp3P2-BE-31" style="edgeStyle=orthogonalEdgeStyle;rounded=0;orthogonalLoop=1;jettySize=auto;html=1;exitX=1;exitY=0.5;exitDx=0;exitDy=0;entryX=0;entryY=0.5;entryDx=0;entryDy=0;" edge="1" parent="1" source="kIBp5ZHx_5jsnp3P2-BE-4" target="kIBp5ZHx_5jsnp3P2-BE-28">
          <mxGeometry relative="1" as="geometry" />
        </mxCell>
        <mxCell id="kIBp5ZHx_5jsnp3P2-BE-4" value="red-socks,请求只有目标IP" style="shape=parallelogram;perimeter=parallelogramPerimeter;whiteSpace=wrap;html=1;fixedSize=1;" vertex="1" parent="1">
          <mxGeometry x="980" y="490" width="170" height="60" as="geometry" />
        </mxCell>
        <mxCell id="kIBp5ZHx_5jsnp3P2-BE-5" value="网易云音乐" style="rounded=0;whiteSpace=wrap;html=1;" vertex="1" parent="1">
          <mxGeometry x="50" y="300" width="240" height="60" as="geometry" />
        </mxCell>
        <mxCell id="kIBp5ZHx_5jsnp3P2-BE-8" style="edgeStyle=orthogonalEdgeStyle;rounded=0;orthogonalLoop=1;jettySize=auto;html=1;exitX=1;exitY=0.5;exitDx=0;exitDy=0;entryX=0.25;entryY=1;entryDx=0;entryDy=0;" edge="1" parent="1" source="kIBp5ZHx_5jsnp3P2-BE-6" target="kIBp5ZHx_5jsnp3P2-BE-3">
          <mxGeometry relative="1" as="geometry" />
        </mxCell>
        <mxCell id="kIBp5ZHx_5jsnp3P2-BE-6" value="配置代理" style="ellipse;whiteSpace=wrap;html=1;" vertex="1" parent="1">
          <mxGeometry x="215" y="310" width="70" height="40" as="geometry" />
        </mxCell>
        <mxCell id="kIBp5ZHx_5jsnp3P2-BE-22" style="edgeStyle=orthogonalEdgeStyle;rounded=0;orthogonalLoop=1;jettySize=auto;html=1;exitX=1;exitY=0.25;exitDx=0;exitDy=0;entryX=0;entryY=0.5;entryDx=0;entryDy=0;" edge="1" parent="1" source="kIBp5ZHx_5jsnp3P2-BE-7" target="kIBp5ZHx_5jsnp3P2-BE-15">
          <mxGeometry relative="1" as="geometry" />
        </mxCell>
        <mxCell id="kIBp5ZHx_5jsnp3P2-BE-7" value="apt &lt;br&gt;(不支持配置代理)" style="rounded=0;whiteSpace=wrap;html=1;" vertex="1" parent="1">
          <mxGeometry x="50" y="450" width="130" height="60" as="geometry" />
        </mxCell>
        <mxCell id="kIBp5ZHx_5jsnp3P2-BE-33" style="edgeStyle=orthogonalEdgeStyle;rounded=0;orthogonalLoop=1;jettySize=auto;html=1;exitX=1;exitY=0.5;exitDx=0;exitDy=0;entryX=0;entryY=0.5;entryDx=0;entryDy=0;" edge="1" parent="1" source="kIBp5ZHx_5jsnp3P2-BE-12" target="kIBp5ZHx_5jsnp3P2-BE-30">
          <mxGeometry relative="1" as="geometry" />
        </mxCell>
        <mxCell id="kIBp5ZHx_5jsnp3P2-BE-34" style="edgeStyle=orthogonalEdgeStyle;rounded=0;orthogonalLoop=1;jettySize=auto;html=1;exitX=0.5;exitY=0;exitDx=0;exitDy=0;entryX=0.5;entryY=0;entryDx=0;entryDy=0;" edge="1" parent="1" source="kIBp5ZHx_5jsnp3P2-BE-12" target="kIBp5ZHx_5jsnp3P2-BE-2">
          <mxGeometry relative="1" as="geometry">
            <Array as="points">
              <mxPoint x="1120" y="160" />
              <mxPoint x="250" y="160" />
            </Array>
          </mxGeometry>
        </mxCell>
        <mxCell id="kIBp5ZHx_5jsnp3P2-BE-35" value="可动态构建一致的PAC" style="edgeLabel;html=1;align=center;verticalAlign=middle;resizable=0;points=[];" vertex="1" connectable="0" parent="kIBp5ZHx_5jsnp3P2-BE-34">
          <mxGeometry x="0.1415" y="-1" relative="1" as="geometry">
            <mxPoint as="offset" />
          </mxGeometry>
        </mxCell>
        <mxCell id="kIBp5ZHx_5jsnp3P2-BE-12" value="基于域名的tunnel规则引擎" style="shape=hexagon;perimeter=hexagonPerimeter2;whiteSpace=wrap;html=1;fixedSize=1;" vertex="1" parent="1">
          <mxGeometry x="1020" y="210" width="200" height="60" as="geometry" />
        </mxCell>
        <mxCell id="kIBp5ZHx_5jsnp3P2-BE-25" style="edgeStyle=orthogonalEdgeStyle;rounded=0;orthogonalLoop=1;jettySize=auto;html=1;exitX=1;exitY=0.5;exitDx=0;exitDy=0;entryX=0;entryY=0.5;entryDx=0;entryDy=0;" edge="1" parent="1" source="kIBp5ZHx_5jsnp3P2-BE-15" target="kIBp5ZHx_5jsnp3P2-BE-16">
          <mxGeometry relative="1" as="geometry" />
        </mxCell>
        <mxCell id="kIBp5ZHx_5jsnp3P2-BE-15" value="配置cyfs-DNS&lt;br&gt;符合规则域名返回特定IP" style="rounded=0;whiteSpace=wrap;html=1;" vertex="1" parent="1">
          <mxGeometry x="230" y="400" width="120" height="60" as="geometry" />
        </mxCell>
        <mxCell id="kIBp5ZHx_5jsnp3P2-BE-26" style="edgeStyle=orthogonalEdgeStyle;rounded=0;orthogonalLoop=1;jettySize=auto;html=1;exitX=1;exitY=0.5;exitDx=0;exitDy=0;entryX=0;entryY=0.5;entryDx=0;entryDy=0;" edge="1" parent="1" source="kIBp5ZHx_5jsnp3P2-BE-16" target="kIBp5ZHx_5jsnp3P2-BE-17">
          <mxGeometry relative="1" as="geometry" />
        </mxCell>
        <mxCell id="kIBp5ZHx_5jsnp3P2-BE-16" value="配置本机路由表" style="rounded=0;whiteSpace=wrap;html=1;" vertex="1" parent="1">
          <mxGeometry x="380" y="400" width="120" height="60" as="geometry" />
        </mxCell>
        <mxCell id="kIBp5ZHx_5jsnp3P2-BE-27" style="edgeStyle=orthogonalEdgeStyle;rounded=0;orthogonalLoop=1;jettySize=auto;html=1;exitX=1;exitY=0.5;exitDx=0;exitDy=0;entryX=0;entryY=0.25;entryDx=0;entryDy=0;" edge="1" parent="1" source="kIBp5ZHx_5jsnp3P2-BE-17" target="kIBp5ZHx_5jsnp3P2-BE-4">
          <mxGeometry relative="1" as="geometry" />
        </mxCell>
        <mxCell id="kIBp5ZHx_5jsnp3P2-BE-17" value="将特定IP路由到&quot;网关)&lt;br&gt;1.本地Tune设备&lt;br&gt;2.旁路由(其它NODE)" style="rounded=0;whiteSpace=wrap;html=1;" vertex="1" parent="1">
          <mxGeometry x="530" y="400" width="120" height="60" as="geometry" />
        </mxCell>
        <mxCell id="kIBp5ZHx_5jsnp3P2-BE-24" style="edgeStyle=orthogonalEdgeStyle;rounded=0;orthogonalLoop=1;jettySize=auto;html=1;exitX=1;exitY=0.5;exitDx=0;exitDy=0;entryX=0;entryY=0.5;entryDx=0;entryDy=0;" edge="1" parent="1" source="kIBp5ZHx_5jsnp3P2-BE-19" target="kIBp5ZHx_5jsnp3P2-BE-20">
          <mxGeometry relative="1" as="geometry" />
        </mxCell>
        <mxCell id="kIBp5ZHx_5jsnp3P2-BE-19" value="根据本机配置,将网络流量发送到默认网关" style="rounded=0;whiteSpace=wrap;html=1;" vertex="1" parent="1">
          <mxGeometry x="380" y="490" width="120" height="60" as="geometry" />
        </mxCell>
        <mxCell id="kIBp5ZHx_5jsnp3P2-BE-21" style="edgeStyle=orthogonalEdgeStyle;rounded=0;orthogonalLoop=1;jettySize=auto;html=1;exitX=1;exitY=0.5;exitDx=0;exitDy=0;entryX=0;entryY=0.5;entryDx=0;entryDy=0;" edge="1" parent="1" source="kIBp5ZHx_5jsnp3P2-BE-20" target="kIBp5ZHx_5jsnp3P2-BE-4">
          <mxGeometry relative="1" as="geometry" />
        </mxCell>
        <mxCell id="kIBp5ZHx_5jsnp3P2-BE-20" value="ip-table 过滤一定不需要代理的ip" style="rounded=0;whiteSpace=wrap;html=1;" vertex="1" parent="1">
          <mxGeometry x="710" y="490" width="120" height="60" as="geometry" />
        </mxCell>
        <mxCell id="kIBp5ZHx_5jsnp3P2-BE-23" style="edgeStyle=orthogonalEdgeStyle;rounded=0;orthogonalLoop=1;jettySize=auto;html=1;exitX=1;exitY=0.75;exitDx=0;exitDy=0;entryX=-0.005;entryY=0.649;entryDx=0;entryDy=0;entryPerimeter=0;" edge="1" parent="1" source="kIBp5ZHx_5jsnp3P2-BE-7" target="kIBp5ZHx_5jsnp3P2-BE-19">
          <mxGeometry relative="1" as="geometry">
            <Array as="points">
              <mxPoint x="200" y="495" />
              <mxPoint x="200" y="529" />
            </Array>
          </mxGeometry>
        </mxCell>
        <mxCell id="kIBp5ZHx_5jsnp3P2-BE-28" value="cyfs-dns的反查" style="shape=hexagon;perimeter=hexagonPerimeter2;whiteSpace=wrap;html=1;fixedSize=1;" vertex="1" parent="1">
          <mxGeometry x="1210" y="490" width="200" height="60" as="geometry" />
        </mxCell>
        <mxCell id="kIBp5ZHx_5jsnp3P2-BE-30" value="open_tunnel&lt;br&gt;open_stream" style="rounded=1;whiteSpace=wrap;html=1;" vertex="1" parent="1">
          <mxGeometry x="1290" y="210" width="120" height="60" as="geometry" />
        </mxCell>
        <mxCell id="kIBp5ZHx_5jsnp3P2-BE-32" style="edgeStyle=orthogonalEdgeStyle;rounded=0;orthogonalLoop=1;jettySize=auto;html=1;exitX=0.5;exitY=0;exitDx=0;exitDy=0;entryX=0.635;entryY=0.994;entryDx=0;entryDy=0;entryPerimeter=0;" edge="1" parent="1" source="kIBp5ZHx_5jsnp3P2-BE-28" target="kIBp5ZHx_5jsnp3P2-BE-3">
          <mxGeometry relative="1" as="geometry" />
        </mxCell>
      </root>
    </mxGraphModel>
  </diagram>
</mxfile>
